Static Calibration
version=1
nRows=44
nColumns=19
inDegrees=yes
endheader
time	ground_force1_vx	ground_force1_vy	ground_force1_vz	ground_force1_px	ground_force1_py	ground_force1_pz	ground_torque1_x	ground_torque1_y	ground_torque1_z	ground_force2_vx	ground_force2_vy	ground_force2_vz	ground_force2_px	ground_force2_py	ground_force2_pz	ground_torque2_x	ground_torque2_y	ground_torque2_z
1.500000	4.917043	647.437805	-1.292991	0.838566	0.000000	-0.239147	0.000011	-0.436436	0.000039	-0.000000	-0.000000	0.000000	0.254000	0.000000	-0.232000	0.000000	0.000000	0.000000	
1.501000	4.031671	647.471863	-1.715357	0.838682	0.000000	-0.239060	0.000011	-0.467356	0.000044	-0.000000	-0.000000	0.000000	0.254000	0.000000	-0.232000	0.000000	0.000000	0.000000	
1.502000	4.742274	647.809143	-1.454768	0.838397	0.000000	-0.239097	0.000015	-0.507977	0.000023	-0.000000	-0.000000	0.000000	0.254000	0.000000	-0.232000	0.000000	0.000000	0.000000	
1.503000	4.486901	647.431091	-1.097907	0.838250	0.000000	-0.239023	0.000008	-0.430163	0.000005	-0.000000	-0.000000	0.000000	0.254000	0.000000	-0.232000	0.000000	0.000000	0.000000	
1.504000	5.006537	646.722046	-1.201544	0.838537	0.000000	-0.239207	-0.000001	-0.512869	0.000028	-0.000000	-0.000000	0.000000	0.254000	0.000000	-0.232000	0.000000	0.000000	0.000000	
1.505000	4.118191	647.093750	-1.273214	0.838207	0.000000	-0.239095	0.000008	-0.466437	0.000022	-0.000000	-0.000000	0.000000	0.254000	0.000000	-0.232000	0.000000	0.000000	0.000000	
1.506000	4.657586	647.096680	-1.467120	0.838472	0.000000	-0.239278	0.000012	-0.439680	-0.000008	-0.000000	-0.000000	0.000000	0.254000	0.000000	-0.232000	0.000000	0.000000	0.000000	
1.507000	5.089487	647.437500	-1.733906	0.838348	0.000000	-0.239175	0.000012	-0.440922	0.000052	-0.000000	-0.000000	0.000000	0.254000	0.000000	-0.232000	0.000000	0.000000	0.000000	
1.508000	4.305781	647.449524	-1.182753	0.838468	0.000000	-0.239026	0.000004	-0.593892	0.000041	-0.000000	-0.000000	0.000000	0.254000	0.000000	-0.232000	0.000000	0.000000	0.000000	
1.509000	4.754766	648.857239	-1.014872	0.838511	0.000000	-0.239058	0.000005	-0.505234	0.000022	-0.000000	-0.000000	0.000000	0.254000	0.000000	-0.232000	0.000000	0.000000	0.000000	
1.510000	4.738573	646.727661	-1.554721	0.838462	0.000000	-0.239173	0.000010	-0.450789	0.000066	-0.000000	-0.000000	0.000000	0.254000	0.000000	-0.232000	0.000000	0.000000	0.000000	
1.511000	4.479898	647.806702	-1.459434	0.838205	0.000000	-0.239156	0.000008	-0.456178	0.000023	-0.000000	-0.000000	0.000000	0.254000	0.000000	-0.232000	0.000000	0.000000	0.000000	
1.512000	4.828406	647.110901	-1.105680	0.838136	0.000000	-0.239138	0.000004	-0.587044	0.000036	-0.000000	-0.000000	0.000000	0.254000	0.000000	-0.232000	0.000000	0.000000	0.000000	
1.513000	4.561963	649.241638	-1.628688	0.838227	0.000000	-0.238921	0.000008	-0.441042	0.000034	-0.000000	-0.000000	0.000000	0.254000	0.000000	-0.232000	0.000000	0.000000	0.000000	
1.514000	4.922021	648.170532	-0.927498	0.838083	0.000000	-0.238946	0.000008	-0.444543	0.000012	-0.000000	-0.000000	0.000000	0.254000	0.000000	-0.232000	0.000000	0.000000	0.000000	
1.515000	4.473321	646.011292	-1.462151	0.838584	0.000000	-0.239289	0.000005	-0.470980	0.000004	-0.000000	-0.000000	0.000000	0.254000	0.000000	-0.232000	0.000000	0.000000	0.000000	
1.516000	4.563477	647.452454	-1.361768	0.838080	0.000000	-0.239037	0.000014	-0.429232	0.000027	-0.000000	-0.000000	0.000000	0.254000	0.000000	-0.232000	0.000000	0.000000	0.000000	
1.517000	5.105546	645.333740	-0.754118	0.838704	0.000000	-0.238964	0.000004	-0.597286	0.000015	-0.000000	-0.000000	0.000000	0.254000	0.000000	-0.232000	0.000000	0.000000	0.000000	
1.518000	4.825396	648.142883	-1.641030	0.838132	0.000000	-0.239221	0.000008	-0.410312	0.000037	-0.000000	-0.000000	0.000000	0.254000	0.000000	-0.232000	0.000000	0.000000	0.000000	
1.519000	5.014650	646.356934	-1.023904	0.838292	0.000000	-0.239142	0.000010	-0.473952	0.000042	-0.000000	-0.000000	0.000000	0.254000	0.000000	-0.232000	0.000000	0.000000	0.000000	
1.520000	4.751096	648.153809	-1.277173	0.838304	0.000000	-0.239083	0.000002	-0.384237	0.000031	-0.000000	-0.000000	0.000000	0.254000	0.000000	-0.232000	0.000000	0.000000	0.000000	
1.521000	5.109319	647.802429	-1.024594	0.838422	0.000000	-0.239241	0.000008	-0.543617	0.000061	-0.000000	-0.000000	0.000000	0.254000	0.000000	-0.232000	0.000000	0.000000	0.000000	
1.522000	5.098863	646.387512	-1.282048	0.838351	0.000000	-0.238985	0.000006	-0.523589	0.000051	-0.000000	-0.000000	0.000000	0.254000	0.000000	-0.232000	0.000000	0.000000	0.000000	
1.523000	4.747442	648.184937	-1.012461	0.838124	0.000000	-0.238952	0.000011	-0.402602	0.000057	-0.000000	-0.000000	0.000000	0.254000	0.000000	-0.232000	0.000000	0.000000	0.000000	
1.524000	5.013569	647.809998	-1.287616	0.838121	0.000000	-0.239375	0.000011	-0.473003	0.000027	-0.000000	-0.000000	0.000000	0.254000	0.000000	-0.232000	0.000000	0.000000	0.000000	
1.525000	4.747115	647.435425	-0.929579	0.838031	0.000000	-0.239238	0.000004	-0.514477	0.000032	-0.000000	-0.000000	0.000000	0.254000	0.000000	-0.232000	0.000000	0.000000	0.000000	
1.526000	5.010516	647.131897	-1.014158	0.838083	0.000000	-0.238845	0.000008	-0.593561	0.000027	-0.000000	-0.000000	0.000000	0.254000	0.000000	-0.232000	0.000000	0.000000	0.000000	
1.527000	5.014894	648.171265	-1.015029	0.838027	0.000000	-0.239008	0.000014	-0.473288	0.000017	-0.000000	-0.000000	0.000000	0.254000	0.000000	-0.232000	0.000000	0.000000	0.000000	
1.528000	5.278893	645.665527	-1.200222	0.838386	0.000000	-0.239102	0.000000	-0.464098	0.000001	-0.000000	-0.000000	0.000000	0.254000	0.000000	-0.232000	0.000000	0.000000	0.000000	
1.529000	5.173736	647.129272	-1.728780	0.838036	0.000000	-0.239123	0.000009	-0.476040	0.000017	-0.000000	-0.000000	0.000000	0.254000	0.000000	-0.232000	0.000000	0.000000	0.000000	
1.530000	4.655071	647.805786	-1.195607	0.838104	0.000000	-0.239195	0.000005	-0.528065	0.000053	-0.000000	-0.000000	0.000000	0.254000	0.000000	-0.232000	0.000000	0.000000	0.000000	
1.531000	5.095803	646.716675	-1.107043	0.838258	0.000000	-0.238914	0.000012	-0.554082	0.000026	-0.000000	-0.000000	0.000000	0.254000	0.000000	-0.232000	0.000000	0.000000	0.000000	
1.532000	4.829544	646.375000	-1.464981	0.838626	0.000000	-0.239112	0.000010	-0.526848	0.000023	-0.000000	-0.000000	0.000000	0.254000	0.000000	-0.232000	0.000000	0.000000	0.000000	
1.533000	4.658689	646.379211	-1.099537	0.838494	0.000000	-0.239033	0.000001	-0.534465	0.000019	-0.000000	-0.000000	0.000000	0.254000	0.000000	-0.232000	0.000000	0.000000	0.000000	
1.534000	4.740993	647.085510	-1.106487	0.838010	0.000000	-0.239256	0.000005	-0.466711	0.000040	-0.000000	-0.000000	0.000000	0.254000	0.000000	-0.232000	0.000000	0.000000	0.000000	
1.535000	4.664423	645.656250	-0.838466	0.838229	0.000000	-0.239197	0.000011	-0.469495	0.000044	-0.000000	-0.000000	0.000000	0.254000	0.000000	-0.232000	0.000000	0.000000	0.000000	
1.536000	5.284112	645.672058	-0.760050	0.838439	0.000000	-0.239364	0.000007	-0.564171	-0.000010	-0.000000	-0.000000	0.000000	0.254000	0.000000	-0.232000	0.000000	0.000000	0.000000	
1.537000	4.744165	648.523499	-1.284660	0.837853	0.000000	-0.239195	-0.000002	-0.556235	0.000033	-0.000000	-0.000000	0.000000	0.254000	0.000000	-0.232000	0.000000	0.000000	0.000000	
1.538000	5.197484	647.097534	-0.935980	0.838273	0.000000	-0.239188	0.000004	-0.533969	0.000052	-0.000000	-0.000000	0.000000	0.254000	0.000000	-0.232000	0.000000	0.000000	0.000000	
1.539000	5.010026	647.799500	-1.198708	0.837946	0.000000	-0.239370	0.000006	-0.548621	-0.000006	-0.000000	-0.000000	0.000000	0.254000	0.000000	-0.232000	0.000000	0.000000	0.000000	
1.540000	5.106817	645.316040	-0.847746	0.838413	0.000000	-0.239374	0.000013	-0.556692	0.000026	-0.000000	-0.000000	0.000000	0.254000	0.000000	-0.232000	0.000000	0.000000	0.000000	
1.541000	5.175646	645.994690	-1.471637	0.838109	0.000000	-0.239293	0.000005	-0.530974	0.000037	-0.000000	-0.000000	0.000000	0.254000	0.000000	-0.232000	0.000000	0.000000	0.000000	
1.542000	4.471726	644.941040	-1.463656	0.838468	0.000000	-0.239535	0.000007	-0.542671	0.000027	-0.000000	-0.000000	0.000000	0.254000	0.000000	-0.232000	0.000000	0.000000	0.000000	
1.543000	4.825902	645.649353	-1.553362	0.838180	0.000000	-0.239588	0.000012	-0.555822	0.000025	-0.000000	-0.000000	0.000000	0.254000	0.000000	-0.232000	0.000000	0.000000	0.000000	
